<svg width="10" height="12" viewBox="0 0 10 12" fill="none" xmlns="http://www.w3.org/2000/svg">
<path d="M1.968 11.2C1.86134 11.2 1.77067 11.168 1.696 11.104C1.632 11.0293 1.6 10.9387 1.6 10.832V8.784H0.368002C0.261335 8.784 0.170669 8.752 0.0960022 8.688C0.0320022 8.61333 2.14577e-06 8.52267 2.14577e-06 8.416V8.048C2.14577e-06 7.94133 0.0320022 7.856 0.0960022 7.792C0.170669 7.71733 0.261335 7.68 0.368002 7.68H1.6V6.768H0.368002C0.261335 6.768 0.170669 6.736 0.0960022 6.672C0.0320022 6.59733 2.14577e-06 6.50667 2.14577e-06 6.4V5.856C2.14577e-06 5.74933 0.0320022 5.664 0.0960022 5.6C0.170669 5.52533 0.261335 5.488 0.368002 5.488H1.6V0.384C1.6 0.266667 1.632 0.176 1.696 0.112C1.77067 0.0373335 1.86134 0 1.968 0H6.032C6.82134 0 7.504 0.128 8.08 0.384C8.66667 0.64 9.12 1.024 9.44 1.536C9.76 2.03733 9.92 2.66667 9.92 3.424C9.92 4.17067 9.76 4.78933 9.44 5.28C9.12 5.77067 8.66667 6.144 8.08 6.4C7.504 6.64533 6.82134 6.768 6.032 6.768H3.2V7.68H6.288C6.39467 7.68 6.48 7.71733 6.544 7.792C6.61867 7.856 6.656 7.94133 6.656 8.048V8.416C6.656 8.52267 6.61867 8.61333 6.544 8.688C6.48 8.752 6.39467 8.784 6.288 8.784H3.2V10.832C3.2 10.9387 3.16267 11.0293 3.088 11.104C3.024 11.168 2.93334 11.2 2.816 11.2H1.968ZM3.184 5.488H5.952C6.74134 5.488 7.33334 5.312 7.728 4.96C8.12267 4.608 8.32 4.096 8.32 3.424C8.32 2.76267 8.128 2.25067 7.744 1.888C7.36 1.52533 6.76267 1.344 5.952 1.344H3.184V5.488Z" fill="#606060"/>
</svg>
