<svg width="13" height="13" viewBox="0 0 13 13" fill="none" xmlns="http://www.w3.org/2000/svg">
<path d="M2.232 12.6C2.112 12.6 2.004 12.558 1.908 12.474C1.824 12.39 1.782 12.282 1.782 12.15V10.494H0.450003C0.318003 10.494 0.210003 10.452 0.126003 10.368C0.0420034 10.284 3.36766e-06 10.176 3.36766e-06 10.044V9.36C3.36766e-06 9.228 0.0420034 9.12 0.126003 9.036C0.210003 8.952 0.318003 8.91 0.450003 8.91H1.782V7.992H0.450003C0.318003 7.992 0.210003 7.95 0.126003 7.866C0.0420034 7.77 3.36766e-06 7.662 3.36766e-06 7.542V6.192C3.36766e-06 6.06 0.0420034 5.952 0.126003 5.868C0.210003 5.772 0.318003 5.724 0.450003 5.724H1.782V0.450001C1.782 0.318 1.824 0.21 1.908 0.126001C2.004 0.0420002 2.112 0 2.232 0H7.29C8.286 0 9.15 0.156 9.882 0.468C10.626 0.768 11.202 1.224 11.61 1.836C12.018 2.448 12.222 3.222 12.222 4.158C12.222 5.034 12.018 5.754 11.61 6.318C11.202 6.882 10.626 7.302 9.882 7.578C9.15 7.854 8.286 7.992 7.29 7.992H5.13V8.91H7.542C7.674 8.91 7.782 8.952 7.866 9.036C7.962 9.12 8.01 9.228 8.01 9.36V10.044C8.01 10.176 7.962 10.284 7.866 10.368C7.782 10.452 7.674 10.494 7.542 10.494H5.13V12.15C5.13 12.282 5.088 12.39 5.004 12.474C4.92 12.558 4.812 12.6 4.68 12.6H2.232ZM5.076 5.724H7.2C7.716 5.724 8.124 5.592 8.424 5.328C8.724 5.064 8.874 4.662 8.874 4.122C8.874 3.666 8.742 3.282 8.478 2.97C8.214 2.658 7.788 2.502 7.2 2.502H5.076V5.724Z" fill="#414141"/>
</svg>
