<svg width="13" height="13" viewBox="0 0 13 13" fill="none" xmlns="http://www.w3.org/2000/svg">
<path d="M5.56385 0.557433C5.93066 -0.185813 6.99051 -0.185812 7.35732 0.557434L8.57905 3.03294C8.72472 3.32808 9.00628 3.53265 9.33199 3.57998L12.0639 3.97694C12.8841 4.09613 13.2116 5.1041 12.6181 5.68264L10.6413 7.60955C10.4056 7.83929 10.298 8.17029 10.3537 8.49468L10.8203 11.2155C10.9605 12.0324 10.103 12.6554 9.36939 12.2697L6.92592 10.9851C6.6346 10.8319 6.28657 10.8319 5.99524 10.9851L3.55177 12.2697C2.81814 12.6554 1.96071 12.0324 2.10082 11.2155L2.56748 8.49468C2.62312 8.17029 2.51557 7.83929 2.27989 7.60955L0.303079 5.68264C-0.290438 5.1041 0.0370733 4.09613 0.857294 3.97694L3.58918 3.57998C3.91489 3.53265 4.19645 3.32808 4.34211 3.03294L5.56385 0.557433Z" fill="#BFBFBF"/>
</svg>
